<svg xmlns="http://www.w3.org/2000/svg" width="200" height="200" viewBox="0 0 200 200" version="1.1">
	<path d="M 53.680 27.175 C 48.658 33.759, 47.682 39.682, 51.061 43.061 C 54.515 46.515, 56.420 45.228, 57.087 38.991 L 57.674 33.500 57.837 38.691 C 58.016 44.406, 58.955 45.630, 61.936 44.034 C 66.642 41.515, 65.142 32.384, 59.066 26.563 L 56.224 23.840 53.680 27.175 M 79.533 26.152 C 75.373 29.425, 71 36.878, 71 40.696 C 71 46.755, 77.939 50.642, 80.023 45.750 C 80.968 43.533, 80.978 43.536, 80.741 46 C 80.390 49.638, 84.738 49.972, 87.950 46.554 C 91.360 42.924, 91.167 36.922, 87.417 30.008 C 85.813 27.050, 84.014 24.476, 83.419 24.288 C 82.825 24.100, 81.076 24.939, 79.533 26.152 M 81.195 40.500 C 81.215 42.150, 81.439 42.704, 81.693 41.731 C 81.947 40.758, 81.930 39.408, 81.656 38.731 C 81.382 38.054, 81.175 38.850, 81.195 40.500 M 33.138 40.744 C 30.946 44.845, 28.842 54.344, 29.431 57.483 C 30.400 62.649, 33.561 66, 37.466 66 C 39.414 66, 41.012 65.412, 41.332 64.578 C 41.669 63.698, 42.677 63.364, 43.972 63.703 C 49.003 65.019, 51.787 57.357, 48.551 51.099 C 46.871 47.850, 41.276 42.711, 37.025 40.513 C 34.319 39.114, 34 39.133, 33.138 40.744 M 179 40.680 C 170.711 41.532, 171 41.197, 171 49.953 C 171 57.767, 170.967 57.871, 168.351 58.184 C 163.006 58.822, 162.645 65.046, 167.907 65.827 C 171.998 66.433, 173 64.404, 173 55.517 L 173 47.279 178.250 46.648 C 187.280 45.563, 187 45.428, 187 50.875 C 187 55.444, 186.820 55.786, 184.126 56.325 C 181.082 56.934, 179.684 59.013, 180.642 61.509 C 181.435 63.575, 185.367 64.409, 187.907 63.050 C 189.836 62.018, 190 61.069, 190 50.965 L 190 40 186.250 40.160 C 184.188 40.248, 180.925 40.482, 179 40.680 M 91.500 49.503 C 84.232 52.074, 80.577 59.435, 84.581 63.438 C 86.303 65.160, 86.604 65.057, 92.500 60.726 C 96.489 57.797, 96.488 57.800, 92.084 61.741 C 87.254 66.065, 87.055 68.474, 91.438 69.574 C 94.987 70.465, 100.099 67.259, 102.319 62.749 C 103.320 60.717, 104.396 56.567, 104.709 53.527 L 105.280 48 100.390 48.044 C 97.700 48.068, 93.700 48.725, 91.500 49.503 M 68.500 52.227 C 61.870 55.652, 58.210 58.936, 56.050 63.396 C 53.311 69.055, 53.453 70.607, 57.041 74.195 C 59.978 77.132, 60.149 77.175, 62.045 75.459 C 63.125 74.482, 64.971 71.043, 66.147 67.817 C 67.323 64.591, 68.451 62.118, 68.653 62.320 C 69.131 62.797, 66.620 69.900, 64.579 73.848 C 63.079 76.747, 63.099 76.983, 64.928 77.962 C 68.307 79.770, 70.702 79.103, 73.896 75.465 C 76.531 72.465, 77 71.131, 77 66.643 C 77 61.893, 74.707 52.555, 73.117 50.831 C 72.778 50.463, 70.700 51.091, 68.500 52.227 M 14 52.180 C 12.075 52.730, 10.333 53.344, 10.129 53.545 C 9.048 54.607, 15.294 62.879, 18.033 64.014 C 20.798 65.159, 21.360 65.085, 23.103 63.341 C 24.182 62.263, 25.327 59.759, 25.649 57.776 C 26.179 54.509, 25.947 54.024, 23.167 52.586 C 19.718 50.803, 18.942 50.769, 14 52.180 M 125.302 53.344 C 125.671 54.306, 125.134 54.557, 123.409 54.227 C 120.714 53.712, 120.233 55.118, 122.469 56.974 C 123.734 58.024, 123.520 58.715, 120.934 61.932 C 119.282 63.989, 117.494 67.248, 116.962 69.176 C 116.348 71.399, 115.063 73.106, 113.450 73.841 C 109.959 75.431, 109.579 75.358, 106.077 72.411 C 103.082 69.891, 103 69.879, 103 71.951 C 103 75.530, 106.558 81.313, 111.748 86.168 C 117.589 91.631, 121.319 93.708, 126.895 94.599 C 129.388 94.998, 131 95.794, 131 96.628 C 131 97.383, 131.450 98, 132 98 C 132.550 98, 133 97.325, 133 96.500 C 133 94.687, 135.599 94.497, 136.417 96.250 C 136.879 97.240, 137.120 97.243, 137.579 96.262 C 137.898 95.581, 140.077 94.175, 142.422 93.138 C 149.743 89.899, 153.909 80.966, 152.015 72.568 C 151.287 69.338, 151.469 68.219, 153.052 66.207 C 155.441 63.169, 154.764 61.897, 151.143 62.621 C 149.107 63.029, 147.580 62.522, 145.432 60.725 C 143.819 59.377, 141.375 57.935, 140 57.521 C 138.625 57.107, 136.065 55.693, 134.311 54.380 C 132.411 52.956, 130.872 52.399, 130.501 52.999 C 130.084 53.673, 129.259 53.674, 128.005 53.003 C 125.466 51.644, 124.687 51.742, 125.302 53.344 M 39.096 53 C 39.060 53.275, 39.668 55.525, 40.448 58 C 41.228 60.475, 41.876 61.600, 41.888 60.500 C 41.907 58.758, 39.271 51.676, 39.096 53 M 19.083 57.365 C 19.313 57.565, 20.625 58.265, 22 58.920 C 24.357 60.042, 24.389 60.022, 22.559 58.555 C 20.966 57.279, 17.711 56.164, 19.083 57.365 M 140.154 64.552 C 140.345 65.532, 141.105 66.536, 141.846 66.782 C 142.706 67.069, 143.066 66.588, 142.846 65.448 C 142.655 64.468, 141.895 63.464, 141.154 63.218 C 140.294 62.931, 139.934 63.412, 140.154 64.552 M 21.389 68.905 C 18.548 70.637, 14 75.897, 14 77.450 C 14 78.674, 24.515 82.981, 27.527 82.990 C 31.890 83.004, 35 80.488, 35 76.943 C 35 74.432, 34.596 73.980, 32.250 73.864 C 29.892 73.747, 29.821 73.666, 31.750 73.294 C 34.202 72.822, 34.752 70.152, 32.800 68.200 C 30.990 66.390, 24.896 66.766, 21.389 68.905 M 37.667 69.667 C 36.378 70.955, 37.048 71.749, 42.453 75.338 C 50.087 80.406, 59.014 89.407, 63.891 96.953 C 69.674 105.900, 72 114.073, 72 125.445 C 72 136.834, 69.782 145.950, 63.640 159.796 C 61.128 165.459, 58.782 171.647, 58.425 173.546 L 57.777 177 73.505 177 L 89.233 177 88.587 174.750 C 88.232 173.512, 87.666 166.862, 87.329 159.971 C 86.318 139.259, 89.458 127.322, 97.889 119.825 C 106.410 112.248, 124.382 105.254, 140.507 103.240 C 145.240 102.649, 146.549 102.101, 146.840 100.590 C 147.186 98.796, 146.694 98.722, 138.354 99.317 C 118.826 100.709, 106.774 105.392, 86 119.661 C 84.336 120.804, 84.756 120.045, 87.255 117.392 L 91.009 113.406 87.930 108.550 C 80.985 97.599, 66.459 85.044, 48.516 74.484 C 38.522 68.602, 38.667 68.666, 37.667 69.667 M 83.500 75.506 C 79.337 76.983, 76 80.173, 76 82.677 C 76 85.220, 78.103 88.174, 79.526 87.628 C 80.392 87.296, 80.704 87.608, 80.372 88.474 C 80.075 89.248, 80.830 90.374, 82.101 91.054 C 87.298 93.835, 94 86.190, 94 77.480 C 94 74.212, 93.802 74.003, 90.750 74.044 C 88.963 74.068, 85.700 74.726, 83.500 75.506 M 36.970 82.532 C 35.093 84.530, 34.502 86.452, 34.172 91.639 L 33.753 98.213 37.127 97.504 C 42.696 96.333, 48.370 92.732, 49.440 89.690 C 50.532 86.584, 49.262 83.500, 46.891 83.500 C 46.126 83.500, 45.177 82.713, 44.782 81.750 C 43.738 79.203, 39.719 79.606, 36.970 82.532 M 84.405 84.250 L 82.500 86.500 84.750 84.595 C 85.987 83.547, 87 82.535, 87 82.345 C 87 81.545, 86.195 82.136, 84.405 84.250 M 41.405 87.250 L 39.500 89.500 41.750 87.595 C 42.987 86.547, 44 85.535, 44 85.345 C 44 84.545, 43.195 85.136, 41.405 87.250 M 18.288 87.629 C 15.105 89.199, 11.866 94.415, 10.450 100.250 L 9.783 103 16.441 103 C 26.465 103, 31.288 99.632, 29.469 93.902 C 28.952 92.273, 28.215 91.917, 26.171 92.308 C 23.649 92.790, 23.622 92.749, 25.519 91.341 C 27.476 89.888, 27.471 89.847, 25.139 87.935 C 22.320 85.624, 22.352 85.625, 18.288 87.629 M 19.861 95.059 L 17.500 97.119 20.250 95.444 C 21.762 94.523, 23 93.597, 23 93.385 C 23 92.604, 22.165 93.050, 19.861 95.059 M 89.619 95.144 C 85.890 98.351, 86.885 101.437, 91.394 100.652 C 94.242 100.156, 94.310 100.204, 92.210 101.227 C 90.950 101.840, 90.054 103.052, 90.218 103.921 C 90.658 106.245, 95.785 106.505, 98.195 104.325 C 100.597 102.153, 104.381 95.048, 103.569 94.235 C 103.255 93.921, 100.605 93.466, 97.681 93.223 C 93.162 92.849, 91.952 93.137, 89.619 95.144 M 49.096 97.265 C 47.774 97.944, 45.834 99.657, 44.784 101.072 C 42.746 103.819, 40.698 114.951, 41.979 116.324 C 43.026 117.446, 53.793 115.365, 56.658 113.488 C 60.584 110.916, 62.464 107.222, 61.395 104.182 C 60.050 100.357, 58.038 100.447, 52.967 104.560 L 48.500 108.184 52.750 104.206 C 57.491 99.769, 57.886 98.545, 55.066 97.035 C 52.622 95.728, 52.044 95.750, 49.096 97.265" stroke="none" fill="black" fill-rule="evenodd"/>
</svg>